<svg width="21" height="21" viewBox="0 0 21 21" fill="none" xmlns="http://www.w3.org/2000/svg">
<path d="M14.25 21H6.75C4.95979 21 3.2429 20.2888 1.97703 19.023C0.711159 17.7571 0 16.0402 0 14.25V6.75C0 4.95979 0.711159 3.2429 1.97703 1.97703C3.2429 0.711159 4.95979 0 6.75 0H14.25C16.0402 0 17.7571 0.711159 19.023 1.97703C20.2888 3.2429 21 4.95979 21 6.75V14.25C21 16.0402 20.2888 17.7571 19.023 19.023C17.7571 20.2888 16.0402 21 14.25 21ZM6.75 1.5C5.35761 1.5 4.02226 2.05312 3.03769 3.03769C2.05312 4.02226 1.5 5.35761 1.5 6.75V14.25C1.5 15.6424 2.05312 16.9777 3.03769 17.9623C4.02226 18.9469 5.35761 19.5 6.75 19.5H14.25C15.6424 19.5 16.9777 18.9469 17.9623 17.9623C18.9469 16.9777 19.5 15.6424 19.5 14.25V6.75C19.5 5.35761 18.9469 4.02226 17.9623 3.03769C16.9777 2.05312 15.6424 1.5 14.25 1.5H6.75Z" fill="black"/>
<path d="M10.4999 15.75C9.72223 15.7564 8.95311 15.5872 8.24992 15.255C8.07366 15.1682 7.93852 15.0156 7.87356 14.8302C7.80859 14.6448 7.81898 14.4413 7.9025 14.2634C7.98602 14.0856 8.136 13.9476 8.32018 13.8792C8.50436 13.8107 8.70804 13.8173 8.88742 13.8975C9.70131 14.2736 10.623 14.3457 11.4855 14.1006C12.3479 13.8556 13.094 13.3096 13.5886 12.5618C14.0831 11.8139 14.2933 10.9136 14.1811 10.024C14.0688 9.13447 13.6416 8.31458 12.9768 7.71296C12.312 7.11135 11.4537 6.76783 10.5574 6.74467C9.66109 6.72152 8.78616 7.02027 8.0912 7.58676C7.39624 8.15325 6.92725 8.94999 6.76924 9.83256C6.61124 10.7151 6.77467 11.6251 7.22992 12.3975C7.28418 12.4829 7.32062 12.5783 7.33704 12.6781C7.35346 12.7779 7.34951 12.88 7.32545 12.9783C7.30138 13.0765 7.25769 13.1689 7.19701 13.2498C7.13632 13.3308 7.05989 13.3986 6.97232 13.4492C6.88474 13.4998 6.78783 13.5322 6.68742 13.5444C6.58701 13.5566 6.48516 13.5483 6.38802 13.5202C6.29087 13.492 6.20043 13.4444 6.12213 13.3804C6.04384 13.3163 5.9793 13.2371 5.93242 13.1475C5.47272 12.3417 5.23707 11.4276 5.24992 10.5C5.24992 9.46165 5.55783 8.44662 6.1347 7.58326C6.71158 6.7199 7.53152 6.04699 8.49083 5.64963C9.45014 5.25227 10.5057 5.14831 11.5241 5.35088C12.5425 5.55345 13.478 6.05347 14.2122 6.78769C14.9465 7.52192 15.4465 8.45738 15.649 9.47578C15.8516 10.4942 15.7476 11.5498 15.3503 12.5091C14.9529 13.4684 14.28 14.2883 13.4167 14.8652C12.5533 15.4421 11.5383 15.75 10.4999 15.75Z" fill="black"/>
<path d="M16.1252 6.00098C16.7466 6.00098 17.2502 5.4973 17.2502 4.87598C17.2502 4.25466 16.7466 3.75098 16.1252 3.75098C15.5039 3.75098 15.0002 4.25466 15.0002 4.87598C15.0002 5.4973 15.5039 6.00098 16.1252 6.00098Z" fill="black"/>
</svg>
